<svg xmlns="http://www.w3.org/2000/svg" width="820" height="326" viewBox="0 0 820 326" role="img" aria-label="ponytail">
<rect width="820" height="326" rx="10" fill="#16161a"/>
<path d="M0 10a10 10 0 0 1 10-10h800a10 10 0 0 1 10 10v24H0z" fill="#1f1f25"/>
<circle cx="20" cy="17" r="5.5" fill="#d76060"/><circle cx="38" cy="17" r="5.5" fill="#c9a227"/><circle cx="56" cy="17" r="5.5" fill="#87af87"/>
<text x="410.0" y="21.5" fill="#585858" font-family="ui-monospace, SFMono-Regular, 'SF Mono', Menlo, Consolas, 'Liberation Mono', monospace" font-size="11.5" text-anchor="middle">ponytail</text>
<g font-family="ui-monospace, SFMono-Regular, 'SF Mono', Menlo, Consolas, 'Liberation Mono', monospace" font-size="13.5">
<text y="54"><tspan x="14.0" fill="#585858" font-weight="400">$ </tspan><tspan x="30.2" fill="#f2f2f4" font-weight="400">claude </tspan><tspan x="86.9" fill="#8a8a8a" font-weight="400">"add a date picker"</tspan></text>
<text y="96"><tspan x="14.0" fill="#d787af" font-weight="700">  ponytail </tspan><tspan x="103.1" fill="#8a8a8a" font-weight="400">checks the ladder</tspan></text>
<text y="117"><tspan x="14.0" fill="#585858" font-weight="400">  ──────────────────────────────────────────────────────────</tspan></text>
<text y="138"><tspan x="14.0" fill="#8a8a8a" font-weight="400">  1  does this need to exist?      </tspan><tspan x="297.5" fill="#f2f2f4" font-weight="400">yes</tspan></text>
<text y="159"><tspan x="14.0" fill="#8a8a8a" font-weight="400">  2  already in this repo?         </tspan><tspan x="297.5" fill="#f2f2f4" font-weight="400">no</tspan></text>
<text y="180"><tspan x="14.0" fill="#8a8a8a" font-weight="400">  3  the stdlib?                   </tspan><tspan x="297.5" fill="#f2f2f4" font-weight="400">no</tspan></text>
<text y="201"><tspan x="14.0" fill="#8a8a8a" font-weight="400">  4  the platform?                 </tspan><tspan x="297.5" fill="#d787af" font-weight="700">yes</tspan><tspan x="321.8" fill="#d787af" font-weight="400">   ← stop here</tspan></text>
<text y="243"><tspan x="14.0" fill="#f2f2f4" font-weight="400">  &lt;input type="date"&gt;</tspan></text>
<text y="285"><tspan x="14.0" fill="#585858" font-weight="400">  3 files not created · 50 lines not written · 1 dep avoided</tspan></text>
</g></svg>